{"title":"Knock.Knock.2015.WEBRiP.XViD.AC3.5.1.ReLeNTLesS","uid":12550063,"size":1444418672,"categoryP":"video","categoryS":"movies","magnet":"?xt=urn:btih:5f5125bae7a041655f8628baa340124e4034acb6&amp;dn=Knock.Knock.2015.WEBRiP.XViD.AC3.5.1.ReLeNTLesS&amp;tr=udp%3A%2F%2Ftracker.leechers-paradise.org%3A6969&amp;tr=udp%3A%2F%2Fzer0day.ch%3A1337&amp;tr=udp%3A%2F%2Fopen.demonii.com%3A1337&amp;tr=udp%3A%2F%2Ftracker.coppersurfer.tk%3A6969&amp;tr=udp%3A%2F%2Fexodus.desync.com%3A6969","seeders":0,"leechers":0,"uploader":"TvTeam","files":4,"time":1444529214,"description":"------------------------------------------------------------------------\r\n\r  https://www.torrenting.com\r\n\r\nSign up is OPEN - for time being. Come and have fun.\r\n\r\n------------------------------------------------------------------------P0STER\r\n[img]http://i.imgur.com/52a30rM.png[/img]\r\n\r\niMDB: http://www.imdb.com/title/tt3605418/\r\n\r\nGeneral\r\nComplete name               : Knock.Knock.2015.WEBRiP.XViD.AC3.5.1.ReLeNTLesS.avi\r\nFormat                      : AVI\r\nFormat/Info                 : Audio Video Interleave\r\nFile size                   : 1.33 GiB\r\nDuration                    : 1h 39mn\r\nOverall bit rate            : 1 904 Kbps\r\n\r\nVideo\r\nID                          : 0\r\nFormat                      : MPEG-4 Visual\r\nFormat profile              : Advanced   \r\nFormat settings, BVOP       : 1\r\nFormat settings, QPel       : No\r\nFormat settings, GMC        : No warppoints\r\nFormat settings, Matrix     : Default (H.263)\r\nMuxing mode                 : Packed bitstream\r\nCodec ID                    : XVID\r\nCodec ID/Hint               : XviD\r\nDuration                    : 1h 39mn\r\nBit rate                    : 1 705 Kbps\r\nWidth                       : 720 pixels\r\nHeight                      : 304 pixels\r\nDisplay aspect ratio        : 2.35:1\r\nFrame rate                  : 23.976 fps\r\nColor space                 : YUV\r\nChroma subsampling          : 4:2:0\r\nBit depth                   : 8 bits\r\nScan type                   : Progressive\r\nCompression mode            : Lossy\r\nBits/(Pixel*Frame)          : 0.325\r\nStream size                 : 1.19 GiB (90%)\r\nWriting library             : XviD 1.2.1 (UTC 2008-12-04)\r\n\r\nAudio\r\nID                          : 1\r\nFormat                      : AC-3\r\nFormat/Info                 : Audio Coding 3\r\nMode extension              : CM (complete main)\r\nFormat settings, Endianness : Big\r\nCodec ID                    : 2000\r\nDuration                    : 1h 39mn\r\nBit rate mode               : Constant\r\nBit rate                    : 192 Kbps\r\nChannel(s)                  : 6 channels\r\nChannel positions           : Front: L C R, Side: L R, LFE\r\nSampling rate               : 48.0 KHz\r\nCompression mode            : Lossy\r\nStream size                 : 137 MiB (10%)\r\nAlignment                   : Aligned on interleaves\r\nInterleave, duration        : 64 ms (1.53 video frames)\r\nInterleave, preload duratio : 192 ms\r\nTitle                       : Knock.Knock.2015.ReLeNTLesS.audio.AC3.5.1.English_new\r\nSample Included             : Yes\r\nSource                      : PLAYNOW Thanks \r\n\r\nPL0T\r\nWhen a devoted husband and father is left home alone for the weekend, two stranded young women unexpectedly knock on his door for help. What starts out as a kind gesture results in a dangerous seduction and a deadly game of cat and mouse.\r\n\r\nCAST\r\nDirector: Eli Roth\r\nWriters: Eli Roth (screenplay), Nicols Lpez (screenplay)\r\nStars: Keanu Reeves, Lorenza Izzo, Ana de Armas\r\n\r\nSCREENS\r\n[img]http://i.imgur.com/IYuswAT.png[/img]\r\n[img]http://i.imgur.com/RC3T6Cj.png[/img]\r\n[img]http://i.imgur.com/Iwn37wB.png[/img]\r\n[img]http://i.imgur.com/2qMZMAw.png[/img]\r\n[img]http://i.imgur.com/3sILDii.png[/img]\r\n[img]http://i.imgur.com/q0N1gAk.png[/img]\r\n\r\nTRAiLER\r\n\r\nGREETZ\r\n\r\n\r\nHIVE-CM8, Blackjesus, M0RPH, M00SE, MiLLENiUM,\r\n\r\nMANiX, TiTAN, Anonymous, TuX, \r\n\r\nACAB, KingStoner, FooKas, 4PlayHD, \r\n\r\nSoZE, GodFather, Cld.... \r\n\r\nKeep up the good work guyz","torrent":{"xt":"urn:btih:5f5125bae7a041655f8628baa340124e4034acb6","amp;dn":"Knock.Knock.2015.WEBRiP.XViD.AC3.5.1.ReLeNTLesS","amp;tr":["udp%3A%2F%2Ftracker.leechers-paradise.org%3A6969","udp%3A%2F%2Fzer0day.ch%3A1337","udp%3A%2F%2Fopen.demonii.com%3A1337","udp%3A%2F%2Ftracker.coppersurfer.tk%3A6969","udp%3A%2F%2Fexodus.desync.com%3A6969"],"infoHash":"5f5125bae7a041655f8628baa340124e4034acb6","infoHashBuffer":{"type":"Buffer","data":[95,81,37,186,231,160,65,101,95,134,40,186,163,64,18,78,64,52,172,182]},"announce":[],"urlList":[]}}